PathFileType	4	(X/Y/Z)	C:/Users/opensim2020/Desktop/walking_exp_matlab/subject01_walking09_straight_01.trc	
DataRate	CameraRate	NumFrames	NumMarkers	Units	OrigDataRate	OrigDataStartFrame	OrigNumFrames	
100.00	100.00	8	43	mm	100.00	772	485	
Frame#	Time	LFHD			RFHD			LBHD			RBHD			C7			T10			CLAV			STRN			RBAK			LSHO			LUPA			LELB			LFRM			LWRA			LWRB			LFIN			RSHO			RUPA			RELB			RFRM			RWRA			RWRB			RFIN			LASI			RASI			LPSI			RPSI			LTHI			LKNE			LTIB			LANK			LHEE			LTOE			RTHI			RKNE			RTIB			RANK			RHEE			RTOE			*39			*40			*41			*42			
		X1	Y1	Z1	X2	Y2	Z2	X3	Y3	Z3	X4	Y4	Z4	X5	Y5	Z5	X6	Y6	Z6	X7	Y7	Z7	X8	Y8	Z8	X9	Y9	Z9	X10	Y10	Z10	X11	Y11	Z11	X12	Y12	Z12	X13	Y13	Z13	X14	Y14	Z14	X15	Y15	Z15	X16	Y16	Z16	X17	Y17	Z17	X18	Y18	Z18	X19	Y19	Z19	X20	Y20	Z20	X21	Y21	Z21	X22	Y22	Z22	X23	Y23	Z23	X24	Y24	Z24	X25	Y25	Z25	X26	Y26	Z26	X27	Y27	Z27	X28	Y28	Z28	X29	Y29	Z29	X30	Y30	Z30	X31	Y31	Z31	X32	Y32	Z32	X33	Y33	Z33	X34	Y34	Z34	X35	Y35	Z35	X36	Y36	Z36	X37	Y37	Z37	X38	Y38	Z38	X39	Y39	Z39	X40	Y40	Z40	X41	Y41	Z41	X42	Y42	Z42	X43	Y43	Z43	

1	0.000	-1061.25305	-1361.31543	1668.96497	-947.01111	-1345.60718	1679.93652	-1051.80249	-1456.21509	1587.89563	-931.69653	-1443.88086	1595.48523	-1000.83722	-1450.63782	1426.00232	-980.93695	-1485.32605	1131.46460	-1014.71259	-1304.01843	1361.47070	-1025.23303	-1266.32495	1203.74780	-912.16229	-1495.26208	1233.96765	-1165.53516	-1381.40466	1391.36047	-1250.27588	-1409.85510	1209.42444	-1258.08032	-1414.28503	1056.30664	-1283.89075	-1350.61975	960.04761	-1270.44153	-1244.82166	871.85400	-1291.38953	-1296.59668	851.11829	-1306.31824	-1231.40588	799.95490	-856.56110	-1351.46606	1388.65381	-746.55396	-1395.96265	1190.02380	-747.99658	-1398.53992	1066.05859	-721.09302	-1378.75073	947.73529	-746.95355	-1313.96606	822.85394	-706.05591	-1355.51550	827.59180	-709.81244	-1326.10730	746.18152	-1106.41309	-1326.31848	919.80316	-892.27460	-1290.66016	929.69958	-1024.14819	-1501.97998	937.01501	-880.62006	-1478.47327	945.98828	-1181.58545	-1367.74377	591.73987	-1175.98413	-1383.57727	458.16907	-1154.66553	-1519.24219	330.45447	-1089.44373	-1637.71680	150.46983	-1019.73627	-1665.38440	137.94617	-1149.59583	-1557.26331	44.57467	-834.98096	-1320.77283	597.15045	-870.39453	-1303.72656	440.40686	-868.33435	-1348.54651	268.39395	-924.76862	-1366.01245	66.59598	-974.77826	-1415.63599	27.75777	-929.36267	-1225.28235	29.84158	-970.02039	-1371.79834	1705.33411	-3101.88257	1973.05334	1023.80475	-3140.82129	2012.45593	1021.95581			 
2	0.010	-1059.72668	-1356.90283	1669.28381	-945.41913	-1341.32214	1680.31909	-1050.27075	-1451.73694	1588.06177	-930.21387	-1439.29956	1595.68225	-999.64880	-1445.95142	1426.13269	-980.26563	-1480.88403	1131.71936	-1011.98077	-1299.05444	1361.48157	-1021.00500	-1259.76794	1204.34009	-911.27765	-1491.09827	1234.16882	-1164.16577	-1376.25769	1391.66638	-1248.77417	-1404.95325	1209.62634	-1256.55676	-1409.87024	1056.60889	-1282.29895	-1346.86304	959.44403	-1268.34265	-1242.24939	870.35992	-1289.25208	-1293.97351	850.04773	-1304.13806	-1229.47278	798.43378	-855.13129	-1347.30493	1388.79932	-745.21844	-1391.61597	1189.83435	-746.56238	-1393.50244	1065.89819	-719.84595	-1372.75720	947.55615	-745.81842	-1307.08752	823.29987	-705.04572	-1348.94287	827.80310	-708.57898	-1318.58496	746.70044	-1105.15906	-1321.09131	920.19495	-890.77509	-1286.93787	929.55029	-1024.32458	-1497.39111	936.92993	-880.58087	-1474.50171	945.59406	-1181.78052	-1357.35938	592.46588	-1176.25818	-1371.66760	458.73358	-1156.81873	-1507.78113	331.82291	-1091.78540	-1628.67102	152.77495	-1022.95618	-1658.70239	141.30765	-1148.02808	-1546.16870	46.71379	-834.48370	-1318.58398	596.73999	-869.53760	-1302.31616	439.93466	-868.34589	-1347.66797	268.22549	-924.80762	-1366.29810	66.77579	-974.86371	-1415.62183	27.95062	-929.39380	-1225.03174	29.76060	-968.47052	-1367.17566	1705.76990	-3101.93848	1973.15210	1023.47534	-3140.68408	2012.61560	1022.04852			 
3	0.020	-1058.32361	-1352.48047	1669.50964	-944.01874	-1336.98279	1680.52356	-1048.85303	-1447.25232	1588.23254	-928.79169	-1434.82166	1595.88501	-998.54633	-1441.41980	1426.45959	-979.65424	-1476.51367	1131.95508	-1011.34320	-1294.91931	1361.83179	-1019.37012	-1255.23657	1204.42480	-910.52399	-1487.00024	1234.34424	-1162.86938	-1371.17615	1391.95459	-1247.37402	-1400.11475	1209.74329	-1255.13489	-1405.51855	1056.82593	-1280.61255	-1343.50964	959.16077	-1266.38794	-1239.86975	868.83917	-1287.69788	-1291.86218	849.13184	-1301.78894	-1227.95386	796.38916	-853.72632	-1343.38062	1388.81702	-744.03174	-1387.22974	1189.62610	-745.31763	-1388.42712	1065.61499	-718.66022	-1366.84399	947.52789	-744.71936	-1300.13184	823.74597	-703.88232	-1341.66357	827.70294	-707.45648	-1310.92969	747.12030	-1104.04553	-1316.06055	920.54980	-889.26154	-1283.25574	929.42975	-1024.56921	-1492.83899	936.89484	-881.28693	-1469.15808	944.01788	-1181.75391	-1347.19800	593.38513	-1176.26367	-1359.85754	459.50983	-1158.63831	-1496.64734	333.51996	-1094.38086	-1619.08179	154.85457	-1026.15869	-1651.19397	144.21617	-1146.87146	-1534.80591	48.68748	-834.07214	-1316.51038	596.53857	-869.20514	-1300.85205	439.52707	-868.29535	-1346.96216	268.15970	-924.82477	-1366.06921	66.71372	-974.97351	-1415.27417	27.72080	-929.55591	-1224.81921	29.62812	-967.04242	-1362.66113	1706.04724	-3101.89868	1973.13232	1023.49554	-3140.73389	2012.55859	1022.02734			 
4	0.030	-1056.98718	-1348.03381	1669.80469	-942.73260	-1332.58826	1680.96985	-1047.50354	-1442.74512	1588.46191	-927.43774	-1430.52954	1596.25574	-997.53717	-1437.04761	1427.03796	-979.09644	-1472.22119	1132.28589	-1009.92712	-1290.41467	1361.99902	-1017.66248	-1250.74902	1204.59851	-909.79980	-1482.94189	1234.57959	-1161.63855	-1366.06494	1392.16772	-1247.07629	-1396.36414	1210.33740	-1254.34338	-1401.96826	1057.40320	-1279.19470	-1340.49951	959.06335	-1264.44934	-1237.68848	867.23181	-1285.97632	-1290.09131	848.47437	-1299.74158	-1226.47754	794.46588	-852.25128	-1339.52344	1388.98999	-742.86407	-1382.86511	1189.44836	-744.00177	-1383.41272	1065.51465	-717.54510	-1360.78320	947.41473	-743.62982	-1293.07410	824.29364	-702.93115	-1335.04578	828.03058	-706.31702	-1303.14221	747.57721	-1102.92065	-1311.10449	921.03076	-887.89038	-1279.70325	929.39587	-1024.87195	-1488.34766	936.97455	-881.31921	-1465.81702	943.76398	-1181.47522	-1337.28076	594.41327	-1176.02600	-1348.13489	460.39819	-1161.05164	-1484.00330	333.05899	-1096.58020	-1608.82043	156.41165	-1029.10950	-1642.85266	146.42119	-1145.79919	-1522.43762	49.57390	-833.77905	-1314.10791	596.26147	-868.96338	-1299.18713	439.35818	-868.35883	-1346.60828	268.17175	-925.14130	-1365.48914	66.48201	-974.98370	-1415.39172	27.74713	-929.73511	-1224.78613	29.57767	-965.76886	-1358.69934	1706.24780	-3101.91797	1973.13770	1023.41663	-3140.64111	2012.54089	1021.99585			 
5	0.040	-1055.74414	-1343.53125	1670.11194	-941.49866	-1328.08936	1681.26074	-1046.24756	-1438.20581	1588.73486	-926.17438	-1425.96973	1596.63892	-996.49097	-1432.36975	1427.22095	-978.58472	-1467.97229	1132.67651	-1007.63885	-1286.06604	1362.33435	-1016.70074	-1246.71606	1204.65906	-909.10138	-1478.86755	1234.88257	-1160.44458	-1360.98108	1392.45630	-1245.71948	-1391.61096	1210.49512	-1252.49268	-1397.41504	1057.54370	-1277.11792	-1336.96326	958.32770	-1262.61719	-1235.68616	865.52692	-1283.88013	-1288.05188	846.98712	-1297.76807	-1225.31812	792.54828	-851.02997	-1335.52039	1389.07520	-741.81036	-1378.51318	1189.34583	-742.80212	-1378.27869	1065.36060	-716.49988	-1354.73938	947.43427	-742.75702	-1286.04065	824.89783	-701.95581	-1327.67224	828.15076	-705.13770	-1295.39575	748.35223	-1101.84375	-1306.00085	921.66852	-886.37988	-1276.11853	929.30939	-1025.15125	-1483.81519	937.06049	-881.36395	-1462.50305	943.52551	-1180.80396	-1327.51599	595.47449	-1175.59717	-1336.40906	461.26038	-1162.73853	-1471.56799	332.81357	-1098.86536	-1598.71204	157.82312	-1031.72546	-1633.68469	147.71680	-1144.82874	-1510.33655	50.23777	-833.55737	-1311.73071	595.94031	-868.84515	-1297.57910	438.94217	-868.53571	-1345.20862	267.91144	-925.32526	-1365.37451	66.54140	-975.16046	-1415.16272	27.96140	-929.76178	-1224.46753	29.37254	-964.57233	-1354.30798	1706.61426	-3101.91162	1973.09399	1023.55524	-3140.79810	2012.54724	1022.04364			 
6	0.050	-1054.55286	-1338.95679	1670.36682	-940.39166	-1323.55994	1681.59290	-1045.08655	-1433.67310	1589.02588	-925.00421	-1421.39636	1596.96594	-995.55035	-1428.04126	1427.76990	-978.10016	-1463.73816	1133.06555	-1006.07971	-1281.62842	1362.58936	-1015.24506	-1242.44092	1204.80859	-908.44373	-1474.82373	1235.20679	-1159.30664	-1355.97278	1392.73804	-1244.39514	-1386.88525	1210.68274	-1250.67419	-1392.88953	1057.71448	-1275.63647	-1334.00488	957.94812	-1260.86682	-1233.87158	863.85632	-1282.55200	-1286.67908	846.24243	-1295.88696	-1224.44019	790.73584	-849.80225	-1331.53931	1389.25220	-740.84833	-1374.07104	1189.30188	-741.67694	-1373.23547	1065.32739	-715.51306	-1348.57727	947.42578	-741.87579	-1278.90088	825.64417	-701.13110	-1320.52222	828.45764	-704.09906	-1287.55530	749.19537	-1100.76770	-1301.02197	922.35565	-885.05267	-1272.58105	929.35260	-1025.43652	-1479.35962	937.27179	-880.74304	-1460.77100	944.50311	-1180.00195	-1318.11096	596.54468	-1174.78491	-1324.67664	462.18332	-1164.14954	-1459.22900	332.47653	-1100.65881	-1587.37231	158.03815	-1034.10876	-1623.68896	148.21530	-1145.04370	-1498.42322	51.57256	-833.43451	-1309.43274	595.51398	-869.15576	-1295.80957	438.61789	-868.71777	-1344.41748	268.01260	-925.50684	-1365.14038	66.51490	-975.29401	-1414.96814	28.02257	-929.99695	-1224.41479	29.41950	-963.35822	-1349.46021	1707.17139	-3101.83789	1973.03796	1023.37915	-3140.78662	2012.54590	1022.04016			 
7	0.060	-1053.45618	-1334.42786	1670.71814	-938.93988	-1319.27319	1682.30347	-1044.00806	-1429.12048	1589.33130	-923.89398	-1417.15125	1597.36475	-994.64514	-1423.57300	1428.11731	-977.67188	-1459.54004	1133.42065	-1005.47443	-1276.99805	1362.57361	-1013.28760	-1237.83911	1205.06067	-907.80768	-1470.74365	1235.47156	-1158.23022	-1351.09741	1393.00745	-1243.15173	-1382.21069	1210.85730	-1248.93665	-1388.41492	1057.87195	-1274.44495	-1331.21838	957.66882	-1258.76453	-1231.63843	862.05432	-1280.39905	-1284.85522	844.91266	-1293.88782	-1223.78943	788.84106	-848.68854	-1327.61829	1389.45557	-739.93359	-1369.65442	1189.31689	-740.68158	-1368.16992	1065.23657	-714.61871	-1342.63037	947.62085	-741.14844	-1271.75012	826.42688	-700.40363	-1313.86609	829.03204	-703.09991	-1279.70544	750.03961	-1099.73926	-1296.04504	923.15833	-883.68488	-1268.70654	929.38940	-1025.76929	-1474.91870	937.50580	-881.58868	-1456.19556	943.34515	-1178.92859	-1308.94556	597.51318	-1174.10828	-1313.56555	462.93814	-1165.25757	-1447.08679	332.01852	-1102.47864	-1576.04138	158.12779	-1036.33105	-1613.33569	147.86353	-1145.70288	-1485.65613	52.60440	-833.25891	-1307.18506	595.37366	-868.46619	-1293.98438	438.39517	-868.75757	-1343.92273	268.10049	-925.71246	-1364.61377	66.17899	-975.42902	-1414.96667	28.12263	-930.12415	-1224.27209	29.35910	-962.31287	-1344.82813	1707.44263	-3101.86426	1973.09619	1023.47760	-3140.76953	2012.47681	1021.96307			 
8	0.070	-1052.45410	-1329.75818	1670.89722	-938.15784	-1314.66650	1682.32300	-1042.98059	-1424.54358	1589.66333	-922.89355	-1412.60803	1597.80701	-993.76514	-1418.99207	1428.19788	-977.27710	-1455.32678	1133.74304	-1002.19177	-1272.55762	1363.01001	-1012.47217	-1233.75427	1205.18921	-907.17633	-1466.65820	1235.75964	-1157.17627	-1346.17175	1393.24731	-1242.02014	-1377.43250	1211.04248	-1247.10486	-1384.06897	1058.08801	-1272.36792	-1328.19104	957.26398	-1257.08691	-1230.02551	860.33362	-1278.72229	-1283.52808	843.98712	-1292.07092	-1223.12476	786.79047	-847.48529	-1323.71948	1389.64258	-739.03296	-1365.26208	1189.36230	-739.53748	-1363.28491	1065.36609	-713.78894	-1336.65002	947.86157	-740.42902	-1264.56409	827.37329	-699.63745	-1306.33130	829.45154	-702.37457	-1271.63452	751.00934	-1098.77698	-1291.27185	924.04724	-882.51196	-1265.22388	929.41943	-1026.15869	-1470.54578	937.75885	-881.93140	-1452.73352	943.00024	-1177.77771	-1300.13110	598.47046	-1173.14417	-1302.61633	463.81799	-1165.98840	-1435.29297	331.80148	-1104.19409	-1564.27466	157.61041	-1038.40417	-1602.21533	146.84172	-1146.81775	-1472.22974	53.59777	-833.22546	-1305.32300	595.06793	-868.91876	-1292.21423	438.11823	-868.87140	-1342.51013	267.92947	-925.75153	-1364.74316	66.56351	-975.04498	-1415.64490	29.22083	-930.26697	-1224.04785	29.33589	-961.31232	-1340.21814	1707.77795	-3101.91626	1973.06384	1023.41376	-3140.69531	2012.60254	1022.05139			 
